<svg xmlns="http://www.w3.org/2000/svg" xmlns:xlink="http://www.w3.org/1999/xlink" version="1.1" x="0px" y="0px" width="100px" height="100px" viewBox="0 0 100 100" enable-background="new 0 0 100 100" xml:space="preserve">
<g id="Captions">
</g>
<g id="Your_Icon" style="fill: #B91319;">
	<path d="M73.262,6.669C57.377,6.758,50,20.143,50,20.143S42.624,6.758,26.736,6.669C1.49,6.528-7.738,38.265,7.689,59.29   C18.508,74.043,31.275,81.133,50,93.331C68.723,81.133,81.488,74.043,92.311,59.29C107.738,38.265,98.508,6.528,73.262,6.669z    M88.635,42.72c-1.838-0.307-3.08-2.045-2.773-3.884c1.531-9.194-4.705-17.922-13.9-19.454c-1.838-0.306-3.08-2.044-2.773-3.883   c0.307-1.837,2.043-3.081,3.883-2.774c12.867,2.143,21.59,14.354,19.445,27.221C92.211,41.782,90.475,43.025,88.635,42.72z"/>
</g>
</svg>