<svg xmlns="http://www.w3.org/2000/svg" xmlns:xlink="http://www.w3.org/1999/xlink" version="1.1" id="Your_Icon" x="0px" y="0px" width="100px" height="100px" viewBox="0 0 100 100" enable-background="new 0 0 100 100" xml:space="preserve">
<g>
	<path fill="#000000" d="M93.293,13.801c-0.461-0.807,0-5.763-2.42-7.146c-2.421-1.383-4.841-0.461-5.763-1.037   c-0.922-0.576-3.688-1.037-4.265,0c-0.576,1.037-2.305,1.037-2.997,0.807c-0.692-0.231-3.228,0.461-3.573,0.692   C73.928,7.346,71.969,6.77,71.508,7c-0.461,0.231-2.766-0.807-5.763,0.807c-2.997,1.614-4.841,4.38-5.533,4.495   c-0.692,0.115-3.458,1.037-2.305,3.343c1.153,2.305,2.421,4.38,2.421,5.187c0,0.807-1.96,2.882-3.919,2.882   c-1.96,0-5.878-0.461-7.377-0.691c-1.498-0.23-6.224-1.153-7.262-1.037c-1.037,0.115-6.455,0.461-7.262,0.231l-0.857-0.06   c0.08-1.007-0.313-2.16-1.132-3.715c-1.988-3.775-8.385-0.086-12.189,1.124c-3.804,1.21-1.124,9.077-1.124,9.855   c0,0.778-4.323,8.558-6.052,11.497c-1.729,2.939-1.47,8.472-2.507,10.72c-1.037,2.248-1.816,5.965-1.642,7.867   c0.173,1.902-0.778,3.515-0.778,3.515l-1.959,2.19c0,0-0.692,1.383-0.576,3.112c0.115,1.729-0.256,13.371-0.013,14.062   c0.243,0.692,1.857,2.421,4.739,2.305c2.882-0.115,5.302-1.268,4.495-2.651c-0.807-1.383-3.112-3.343-3.343-5.533   c-0.231-2.19-0.807-4.38,0.692-6.224c0.848-1.044,3.506-3.713,5.904-6.063c0.187,0.343,1.394,2.553,1.819,3.296   c0.461,0.807,0.346,2.766,2.421,6.685c2.075,3.919,4.149,3.804,8.414,3.227s1.498-3.227-2.075-4.611   c-3.573-1.383-3.804-6.455-1.153-8.529c2.651-2.075,6.916-9.106,6.916-9.106s-0.023-0.25-0.072-0.685   c4.282,1.809,10.296,5.257,12.174,6.103c2.305,1.037,3.343,2.075,3.343,2.075s1.844,16.137,2.075,19.48   c0.23,3.343,0.922,5.533,1.498,6.34c0.576,0.807,1.729,5.648,3.688,6.224c1.959,0.576,5.763,0.115,7.607,0   c1.844-0.115,1.959-1.959,1.037-2.882c-0.922-0.922-5.187-4.265-5.533-5.648c-0.346-1.383-1.037-16.137-0.115-17.29   c0.922-1.153,2.651-0.461,4.38-0.922c1.729-0.461,2.305-0.922,2.305-0.922s4.034,0.183,5.187-0.6   c1.153-0.783,2.421-1.705,2.421-1.705s0.691,6.741,1.153,9.48c0.461,2.738,2.421,8.847,2.536,10   c0.115,1.153,1.153,3.343,2.997,3.804c1.844,0.461,8.184,1.153,7.146-1.844c-1.037-2.997-3.227-3.458-3.227-3.458   s-1.498-2.305-1.959-3.919c-0.461-1.614-1.268-6.224-0.231-8.53c1.037-2.305,2.19-5.763,1.959-8.184   c-0.23-2.421,2.764-7.146,3.572-11.872c0.808-4.726,0.347-7.262,1.154-8.069c0.807-0.807,1.383-6.34,1.268-8.645   c-0.115-2.305,0.461-4.956,0.807-6.57c0.346-1.614-0.231-5.417,0-7.146c0.231-1.729,0.114-2.997,0.114-2.997   s2.192,1.268,2.538,0.576C94.676,16.682,93.754,14.608,93.293,13.801z"/>
</g>
</svg>