<svg xmlns="http://www.w3.org/2000/svg" xmlns:xlink="http://www.w3.org/1999/xlink" version="1.1" id="Layer_1" x="0px" y="0px" width="100px" height="100px" viewBox="0 0 100 100" enable-background="new 0 0 100 100" xml:space="preserve">
<path fill="#000000" d="M30.315,30.432h-0.186c-6.388,0-9.627,3.318-9.627,9.863v0.271c0,6.544,3.239,9.863,9.627,9.863h0.186  c6.388,0,9.627-3.318,9.627-9.863v-0.271C39.942,33.75,36.703,30.432,30.315,30.432z M36.408,40.566  c0,4.554-1.708,6.328-6.093,6.328h-0.186c-4.384,0-6.093-1.774-6.093-6.328v-0.271c0-4.554,1.708-6.329,6.093-6.329h0.186  c4.384,0,6.093,1.774,6.093,6.329V40.566z M33.874,40.355v0.151c0,3.214-1.483,4.538-4.404,4.538h-0.104  c-2.921,0-4.405-1.324-4.405-4.538v-0.151c0-3.205,1.483-4.538,4.405-4.538h0.104C32.391,35.817,33.874,37.15,33.874,40.355z   M70.307,30.432c-6.389,0-9.628,3.318-9.628,9.863v0.271c0,6.544,3.239,9.863,9.628,9.863h0.186c6.389,0,9.627-3.318,9.627-9.863  v-0.271c0-6.544-3.238-9.863-9.627-9.863H70.307z M76.585,40.295v0.271c0,4.554-1.709,6.328-6.093,6.328h-0.186  c-4.385,0-6.094-1.774-6.094-6.328v-0.271c0-4.554,1.709-6.329,6.094-6.329h0.186C74.876,33.966,76.585,35.741,76.585,40.295z   M71.15,35.817h0.104c2.92,0,4.404,1.333,4.404,4.538v0.151c0,3.214-1.484,4.538-4.404,4.538H71.15  c-2.921,0-4.404-1.324-4.404-4.538v-0.151C66.746,37.15,68.229,35.817,71.15,35.817z M70.463,85.123  c-4.018,2.956-10.593,3.531-19.703,3.531h-0.58c-9.065,0-15.619-0.569-19.642-3.485c0.176,0.011,0.357,0.03,0.528,0.03  c5.266,0,7.941-5.326,10.353-10.134c2.402-4.784,4.671-9.304,9.029-9.304c4.211,0,6.196,4.336,8.299,8.926  C61.044,79.706,63.831,85.78,70.463,85.123z M100.059,26.729c-1.264-8.913-13.604-9.958-23.521-10.797  c-3.24-0.274-6.298-0.537-8.389-1.038c-4.793-1.813-10.535-2.707-17.274-2.707h-0.81c-6.095,0-11.377,0.728-15.877,2.208  c-0.151,0.004-0.304,0.021-0.456,0.066c-0.406,0.121-0.801,0.247-1.189,0.379c-2.093,0.538-5.267,0.807-8.624,1.091  c-9.917,0.84-22.257,1.885-23.521,10.797c-0.565,3.983,0.303,9.155,2.267,13.498c2.232,4.936,5.499,8.048,8.966,8.54  c0.212,0.03,0.416,0.044,0.612,0.044c0.765,0,1.399-0.189,1.942-0.518c-0.002,0.272-0.012,0.538-0.012,0.813v1.176  c0,15.564,4.362,25.984,13.469,31.677c0.004,0.008,0.009,0.015,0.014,0.022c0.084,0.016,0.169,0.037,0.252,0.072  c5.743,2.419,8.056-1.492,11.357-8.068c2.501-4.984,5.337-10.633,11.182-10.633c5.758,0,8.271,5.488,10.489,10.331  c3.12,6.815,5.372,10.866,12.095,8.353c0.085-0.031,0.17-0.051,0.257-0.062c0.002-0.005,0.005-0.009,0.008-0.014  c9.108-5.694,13.47-16.114,13.47-31.678v-1.176c0-0.194-0.007-0.379-0.009-0.571c0.431,0.173,0.907,0.275,1.455,0.276  c0,0,0,0,0.001,0c0.197,0,0.4-0.014,0.612-0.044c3.467-0.491,6.734-3.604,8.965-8.54C99.755,35.884,100.624,30.712,100.059,26.729z   M50.76,48.889h-0.58c-1.5,0-2.931,0.05-4.293,0.15c0.443-2.032,1.751-2.807,4.409-2.807h0.151c2.652,0,3.96,0.771,4.407,2.795  C53.55,48.937,52.188,48.889,50.76,48.889z M83.233,50.282c0,11.843-2.634,20.311-8.213,25.758c0.098-0.926,0.152-1.911,0.152-2.975  v-4.669c0-11.381-5.619-17.266-16.696-18.971c-0.517-4.406-3.26-6.729-8.03-6.729h-0.151c-4.78,0-7.526,2.333-8.033,6.759  c-10.944,1.745-16.495,7.627-16.495,18.94v4.669c0,1.063,0.055,2.049,0.152,2.975c-5.579-5.447-8.212-13.915-8.212-25.758v-1.176  c0-23.088,9.979-33.385,32.358-33.385h0.81c5.583,0,10.394,0.642,14.471,1.962c0.073,0.042,0.146,0.084,0.226,0.116  c0.386,0.152,0.806,0.288,1.278,0.415c11.222,4.301,16.383,14.289,16.383,30.892V50.282z M67.583,27.433  c-7.271,0-9.488-1.219-11.444-2.294c-1.341-0.736-2.4-1.318-5.69-1.318c-3.304,0-4.381,0.586-5.747,1.328  c-1.968,1.07-4.199,2.284-11.388,2.284c-0.976,0-1.767-0.792-1.767-1.768c0-0.976,0.792-1.767,1.767-1.767  c6.291,0,8.023-0.942,9.7-1.854c1.589-0.864,3.232-1.758,7.435-1.758c4.197,0,5.821,0.893,7.391,1.756  c1.662,0.913,3.38,1.856,9.744,1.856c0.976,0,1.768,0.792,1.768,1.767C69.351,26.641,68.559,27.433,67.583,27.433z"/>
</svg>