<svg xmlns="http://www.w3.org/2000/svg" xmlns:xlink="http://www.w3.org/1999/xlink" version="1.1" id="Layer_1" x="0px" y="0px" width="100px" height="100px" viewBox="0 0 100 100" enable-background="new 0 0 100 100" xml:space="preserve">
<g id="guides">
</g>
<g id="welly_boots_pair">
	<path d="M32.464,12.664c0-0.954,6.244-2.733,18.178-2.733c11.935,0,18.18,1.78,18.18,2.733c0,0.954-6.245,2.734-18.18,2.734   C38.708,15.398,32.464,13.618,32.464,12.664z M30.974,75.9c-4.944-0.529-10.112-1.479-15.353-3.017c0,0,0.678,2.349,1.491,3.163   c0,0,5.094,1.662,13.716,2.616C30.812,77.85,30.847,76.902,30.974,75.9z M43.424,65.469c1.306,0,2.726,0.12,4.267,0.367   c0.007,0.002,0.681,0.137,1.568,0.137c1.101,0,2.593-0.201,3.449-1.162c0.646-0.723,0.887-1.844,0.718-3.332   c-0.261-2.301-0.937-5.418-1.719-9.028c-1.604-7.405-3.802-17.547-4.197-28.889c-0.01-0.306,0.107-0.597,0.315-0.808   c-0.01-0.075-0.015-0.149-0.015-0.223c0-0.926,0.667-1.907,5.511-2.802c2.535-0.469,6.98-1.027,13.761-1.027   c0.627,0,1.213,0.009,1.8,0.019c0.197-2.505,0.371-4.357,0.459-5.261c-2.019,2.066-11.849,2.84-18.7,2.84   c-6.626,0-16.042-0.724-18.479-2.642c0.584,16.779,5.102,30.692,5.91,37.834c0.812,7.179-7.045,5.554-7.045,5.554   c-18.695-2.98-15.31,14.312-15.31,14.312c5.345,1.572,10.56,2.535,15.514,3.063c0.381-1.703,1.082-3.468,2.334-4.987   C35.731,66.802,39.048,65.469,43.424,65.469z M57.653,84.814c16.838,0,28.736-4.406,28.736-4.406   c2.305-12.059-1.761-9.473-2.03-25.188c-0.242-13.939,1.117-28.729,1.425-31.896c-2.018,2.066-11.848,2.84-18.701,2.84   c-6.625,0-16.041-0.724-18.476-2.642c0.584,16.779,5.101,30.693,5.909,37.833c0.561,4.941-2.989,5.713-5.257,5.713   c-1.025,0-1.788-0.158-1.788-0.158c-1.484-0.236-2.828-0.346-4.047-0.346c-14.129,0-11.262,14.656-11.262,14.656   C41.25,83.896,49.965,84.814,57.653,84.814z M57.899,86.32c-7.86,0-16.74-0.903-25.834-3.57c0,0,0.678,2.35,1.491,3.163   c0,0,9.997,3.271,25.716,3.271c3.646,0,7.6-0.176,11.809-0.608c0,0,0.734-1.334,1.874-1.334c0.484,0,1.042,0.241,1.648,0.929   c0,0,6.096-0.641,10.702-2.402c1.167-0.447,1.084-3.425,1.084-3.425S74.394,86.32,57.899,86.32z M67.083,25.264   c11.937,0,18.183-1.78,18.183-2.735c0-0.953-6.246-2.733-18.183-2.733c-11.932,0-18.175,1.78-18.175,2.733   C48.908,23.484,55.151,25.264,67.083,25.264z"/>
</g>
</svg>